<svg width="29" height="28" viewBox="0 0 29 28" fill="none" xmlns="http://www.w3.org/2000/svg">
<path fill-rule="evenodd" clip-rule="evenodd" d="M11.2668 23.8998V20.322C11.2668 19.412 12.0087 18.6725 12.9279 18.6664H16.295C17.2186 18.6664 17.9673 19.4076 17.9673 20.322V23.911C17.9671 24.6836 18.59 25.3151 19.3703 25.3332H21.615C24.5444 25.3332 25.6667 23.911 25.6667 21.322V11.144C25.6548 10.2725 25.2414 9.45412 24.5444 8.92175L16.8674 2.7994C15.5225 1.73337 13.6106 1.73337 12.2657 2.7994L4.62242 8.93286C3.9227 9.46307 3.50868 10.2828 3.50006 11.1551V21.322C3.50006 23.8998 4.62242 25.3332 7.55179 25.3332H9.79652C10.5961 25.3332 11.2444 24.6915 11.2444 23.8998" fill="#FE8C46"/>
<path d="M11.2668 23.8998V20.322C11.2668 19.412 12.0087 18.6725 12.9279 18.6664H16.295C17.2186 18.6664 17.9673 19.4076 17.9673 20.322V23.911C17.9671 24.6836 18.59 25.3151 19.3703 25.3332H21.615C24.5444 25.3332 25.6667 23.911 25.6667 21.322V11.144C25.6548 10.2725 25.2414 9.45412 24.5444 8.92175L16.8674 2.7994C15.5225 1.73337 13.6106 1.73337 12.2657 2.7994L4.62242 8.93286C3.9227 9.46307 3.50868 10.2828 3.50006 11.1551V21.322C3.50006 23.8998 4.62242 25.3332 7.55179 25.3332H9.79652C10.5961 25.3332 11.2444 24.6915 11.2444 23.8998" stroke="#FE8C46" stroke-width="1.47076" stroke-linecap="round" stroke-linejoin="round"/>
</svg>
